<svg width="24" height="24" viewBox="0 0 24 24" fill="none" xmlns="http://www.w3.org/2000/svg">
<path d="M11.9554 15.7624C14.0342 15.7624 15.7195 14.0772 15.7195 11.9984C15.7195 9.91959 14.0342 8.23438 11.9554 8.23438C9.87662 8.23438 8.19141 9.91959 8.19141 11.9984C8.19141 14.0772 9.87662 15.7624 11.9554 15.7624Z" fill="#E06343"/>
<path opacity="0.4" d="M11.9545 2.00011C9.64927 2.02362 7.42214 2.83837 5.64596 4.30794C3.86978 5.77751 2.65239 7.81268 2.19763 10.0727C1.74288 12.3327 2.07836 14.6803 3.1479 16.7225C4.21745 18.7647 5.95612 20.3775 8.07281 21.2907C8.3338 21.4012 8.61636 21.4512 8.89941 21.4372C9.18245 21.4232 9.45868 21.3454 9.70747 21.2097C9.95626 21.074 10.1712 20.8839 10.3362 20.6535C10.5013 20.4231 10.6121 20.1584 10.6606 19.8792C10.7343 19.4603 10.664 19.0288 10.4611 18.655C10.2582 18.2812 9.9346 17.9871 9.54313 17.8208C8.16576 17.2958 7.01896 16.2998 6.30629 15.0095C5.59362 13.7192 5.3612 12.2181 5.65028 10.7727C5.93936 9.32735 6.73124 8.03114 7.88535 7.11421C9.03946 6.19728 10.4811 5.71895 11.9545 5.76413C13.3897 5.78982 14.773 6.30541 15.8749 7.22537C16.9768 8.14533 17.7311 9.41436 18.0126 10.8219C18.2942 12.2295 18.086 13.6911 17.4227 14.9641C16.7593 16.2371 15.6807 17.2451 14.3658 17.8208C13.9799 18.0006 13.6663 18.3061 13.4764 18.6871C13.2865 19.0682 13.2314 19.5024 13.3202 19.9189C13.4089 20.3353 13.6363 20.7093 13.965 20.9799C14.2938 21.2504 14.7046 21.4015 15.1304 21.4084C15.3746 21.3945 15.6141 21.3347 15.8361 21.2319C17.9754 20.3436 19.7399 18.7399 20.8281 16.695C21.9163 14.6501 22.2606 12.2907 21.8024 10.0201C21.3441 7.74944 20.1115 5.70838 18.3154 4.24561C16.5192 2.78285 14.2709 1.98914 11.9545 2.00011Z" fill="#E06343"/>
</svg>
