<svg width="96" height="24" viewBox="0 0 96 24" fill="none" xmlns="http://www.w3.org/2000/svg">
<path d="M3.08 23.4V16.536C4.04 17.592 5.48 18.288 7.064 18.288C10.64 18.288 13.208 15.648 13.208 12.096C13.208 8.736 10.52 5.952 6.968 5.952C3.416 5.952 0.704 8.592 0.704 12.096V23.4H3.08ZM6.968 16.056C4.76 16.056 3.08 14.256 3.08 12.12C3.08 9.96 4.76 8.208 6.968 8.208C9.152 8.208 10.832 9.96 10.832 12.12C10.832 14.256 9.152 16.056 6.968 16.056ZM21.4355 18.288C24.9635 18.288 27.6755 15.504 27.6755 12.096C27.6755 8.736 24.9875 5.952 21.4355 5.952C17.9075 5.952 15.1475 8.712 15.1475 12.096C15.1475 15.504 17.8835 18.288 21.4355 18.288ZM21.4355 16.032C19.2275 16.032 17.5235 14.256 17.5235 12.12C17.5235 9.96 19.2275 8.184 21.4355 8.184C23.6195 8.184 25.2995 9.96 25.2995 12.12C25.2995 14.256 23.6195 16.032 21.4355 16.032ZM30.809 0.839999V18H33.185V0.839999H30.809ZM42.2156 18.288C44.1356 18.288 45.6956 17.376 46.5836 15.936V18H48.8396V12.096C48.8396 8.592 46.1276 5.952 42.5756 5.952C38.9996 5.952 36.3116 8.736 36.3116 12.096C36.3116 15.504 38.8076 18.288 42.2156 18.288ZM42.5756 16.032C40.3916 16.032 38.6876 14.256 38.6876 12.12C38.6876 9.96 40.3916 8.184 42.5756 8.184C44.7836 8.184 46.4636 9.96 46.4636 12.12C46.4636 14.256 44.7836 16.032 42.5756 16.032Z" fill="#FAFAFB"/>
<path d="M55.0991 18V12.168C55.0991 9.888 56.5631 8.208 58.6511 8.208C60.8831 8.208 62.0351 10.008 62.0351 12.096V18H64.4111V11.856C64.4111 8.256 62.4671 5.952 59.0111 5.952C57.4271 5.952 56.0111 6.576 55.0991 7.56V0.839999H52.7231V18H55.0991ZM73.4216 15.984C71.2616 15.984 70.0856 14.088 70.0856 11.928V6.24H67.7096V12.168C67.7096 15.576 69.7736 18.288 73.4216 18.288C77.1176 18.288 79.1816 15.6 79.1816 12.192V6.24H76.8056V11.904C76.8056 14.088 75.6056 15.984 73.4216 15.984ZM88.7649 18.288C92.3169 18.288 95.0049 15.528 95.0049 12.144C95.0049 8.568 92.4369 5.952 88.8609 5.952C87.2769 5.952 85.8369 6.648 84.8769 7.704V0.839999H82.5009V12.144C82.5009 15.624 85.2129 18.288 88.7649 18.288ZM88.7649 16.056C86.5569 16.056 84.8769 14.28 84.8769 12.12C84.8769 9.984 86.5569 8.208 88.7649 8.208C90.9489 8.208 92.6289 9.984 92.6289 12.12C92.6289 14.28 90.9489 16.056 88.7649 16.056Z" fill="#E06343"/>
</svg>
