<svg width="24" height="24" viewBox="0 0 24 24" fill="none" xmlns="http://www.w3.org/2000/svg">
<path opacity="0.4" d="M17.4997 11.4899C17.3897 11.5799 17.2797 11.6499 17.1497 11.7099L16.0597 12.2599L12.9897 13.7899C12.4397 14.0699 11.5497 14.0699 11.0097 13.7899L7.93966 12.2599L6.84966 11.7099C6.72966 11.6399 6.61966 11.5799 6.49966 11.4899C5.43966 10.7499 5.24966 9.39986 6.09966 8.32986L10.2697 3.12986C10.5297 2.80986 10.8397 2.56986 11.1597 2.42986C11.6997 2.16986 12.2997 2.16986 12.8297 2.42986C13.1497 2.56986 13.4697 2.80986 13.7197 3.12986L17.8897 8.32986C18.7497 9.40986 18.5597 10.7599 17.4997 11.4899Z" fill="#E06343"/>
<path d="M17.5 11.4896C17.39 11.5796 17.28 11.6496 17.15 11.7096L16.06 12.2596L12 9.20963L7.94 12.2696L6.85 11.7196C6.73 11.6496 6.62 11.5896 6.5 11.4996C6.54 11.3096 6.64 11.1396 6.81 11.0196L11.16 7.74963V2.43963C11.7 2.17963 12.3 2.17963 12.83 2.43963V7.74963L17.18 11.0196C17.35 11.1396 17.45 11.2996 17.5 11.4896Z" fill="#E06343"/>
<path d="M8.77011 14.4296L10.3801 15.1496C11.4101 15.6096 12.5901 15.6096 13.6301 15.1496L15.2401 14.4296C16.6801 13.7896 18.0101 15.5296 17.0101 16.7496L13.5501 20.9796C12.7001 22.0196 11.3101 22.0196 10.4501 20.9796L7.00011 16.7496C5.99011 15.5296 7.32011 13.7896 8.77011 14.4296Z" fill="#E06343"/>
</svg>
