<svg width="24" height="24" viewBox="0 0 24 24" fill="none" xmlns="http://www.w3.org/2000/svg">
<path d="M13.1896 16.29H10.8096V17.71H13.1896V16.29Z" fill="#E06343"/>
<path d="M7.94977 2.71C7.94977 3.11 7.62977 3.43 7.23977 3.43H6.28977C4.57977 3.43 3.18977 4.82 3.18977 6.52V12.4C2.33977 12.83 1.75977 13.71 1.75977 14.73V6.52C1.75977 4.03 3.78977 2 6.28977 2H7.23977C7.62977 2 7.94977 2.32 7.94977 2.71Z" fill="#E06343"/>
<path d="M22.2398 6.52V14.73C22.2398 13.71 21.6598 12.83 20.8098 12.4V6.52C20.8098 4.82 19.4198 3.43 17.7098 3.43H16.7598C16.3698 3.43 16.0498 3.11 16.0498 2.71C16.0498 2.32 16.3698 2 16.7598 2H17.7098C20.2098 2 22.2398 4.03 22.2398 6.52Z" fill="#E06343"/>
<path opacity="0.4" d="M10.8098 14.7299V19.3799C10.8098 20.8299 9.62977 21.9999 8.18976 21.9999H4.37977C2.93977 21.9999 1.75977 20.8299 1.75977 19.3799V14.7299C1.75977 13.7099 2.33977 12.8299 3.18977 12.3999C3.54977 12.2099 3.94977 12.1099 4.37977 12.1099H8.18976C9.62977 12.1099 10.8098 13.2799 10.8098 14.7299Z" fill="#E06343"/>
<path opacity="0.4" d="M22.2404 14.7299V19.3799C22.2404 20.8299 21.0604 21.9999 19.6204 21.9999H15.8104C14.3704 21.9999 13.1904 20.8299 13.1904 19.3799V14.7299C13.1904 13.2799 14.3704 12.1099 15.8104 12.1099H19.6204C20.0504 12.1099 20.4504 12.2099 20.8104 12.3999C21.6604 12.8299 22.2404 13.7099 22.2404 14.7299Z" fill="#E06343"/>
</svg>
