<svg width="24" height="24" viewBox="0 0 24 24" fill="none" xmlns="http://www.w3.org/2000/svg">
<path opacity="0.4" d="M21.6601 10.44L20.6801 14.62C19.8401 18.23 18.1801 19.69 15.0601 19.39C14.5601 19.35 14.0201 19.26 13.4401 19.12L11.7601 18.72C7.59006 17.73 6.30006 15.67 7.28006 11.49L8.26006 7.30001C8.46006 6.45001 8.70006 5.71001 9.00006 5.10001C10.1701 2.68001 12.1601 2.03001 15.5001 2.82001L17.1701 3.21001C21.3601 4.19001 22.6401 6.26001 21.6601 10.44Z" fill="#E06343"/>
<path d="M15.06 19.3901C14.44 19.8101 13.66 20.1601 12.71 20.4701L11.13 20.9901C7.15998 22.2701 5.06997 21.2001 3.77997 17.2301L2.49997 13.2801C1.21997 9.3101 2.27997 7.2101 6.24997 5.9301L7.82997 5.4101C8.23997 5.2801 8.62997 5.1701 8.99997 5.1001C8.69997 5.7101 8.45997 6.4501 8.25997 7.3001L7.27997 11.4901C6.29997 15.6701 7.58998 17.7301 11.76 18.7201L13.44 19.1201C14.02 19.2601 14.56 19.3501 15.06 19.3901Z" fill="#E06343"/>
<path d="M17.49 10.5098C17.43 10.5098 17.37 10.4998 17.3 10.4898L12.45 9.25978C12.05 9.15978 11.81 8.74978 11.91 8.34978C12.01 7.94978 12.42 7.70978 12.82 7.80978L17.67 9.03978C18.07 9.13978 18.31 9.54978 18.21 9.94978C18.13 10.2798 17.82 10.5098 17.49 10.5098Z" fill="#E06343"/>
<path d="M14.56 13.8899C14.5 13.8899 14.44 13.8799 14.37 13.8699L11.46 13.1299C11.06 13.0299 10.82 12.6199 10.92 12.2199C11.02 11.8199 11.43 11.5799 11.83 11.6799L14.74 12.4199C15.14 12.5199 15.38 12.9299 15.28 13.3299C15.2 13.6699 14.9 13.8899 14.56 13.8899Z" fill="#E06343"/>
</svg>
