<svg width="24" height="24" viewBox="0 0 24 24" fill="none" xmlns="http://www.w3.org/2000/svg">
<path opacity="0.4" d="M8.56004 3.33984V17.6698C8.22004 17.6798 7.88004 17.7598 7.63004 17.9098L5.28004 19.2498C3.64004 20.1898 2.29004 19.4098 2.29004 17.5098V7.77984C2.29004 7.14984 2.74004 6.36984 3.30004 6.04984L7.63004 3.56984C7.88004 3.42984 8.22004 3.34984 8.56004 3.33984Z" fill="#9AA1AD"/>
<path d="M15.7296 6.32994V20.6599C15.3796 20.6699 15.0396 20.6099 14.7696 20.4799L9.51957 17.8499C9.24957 17.7199 8.90957 17.6599 8.55957 17.6699V3.33994C8.90957 3.32994 9.24957 3.38994 9.51957 3.51994L14.7696 6.14994C15.0396 6.27994 15.3796 6.33994 15.7296 6.32994Z" fill="#9AA1AD"/>
<path opacity="0.4" d="M22.0005 6.49006V16.2201C22.0005 16.8501 21.5505 17.6301 20.9905 17.9501L16.6605 20.4301C16.4105 20.5701 16.0705 20.6501 15.7305 20.6601V6.33006C16.0705 6.32006 16.4105 6.24006 16.6605 6.09006L19.0105 4.75006C20.6505 3.81006 22.0005 4.59006 22.0005 6.49006Z" fill="#9AA1AD"/>
</svg>
