<svg width="24" height="24" viewBox="0 0 24 24" fill="none" xmlns="http://www.w3.org/2000/svg">
<path d="M10.2904 10.3398V18.4098C10.2904 20.3898 8.67035 21.9998 6.70035 21.9998C4.72035 21.9998 3.11035 20.3898 3.11035 18.4098C3.11035 16.4398 4.72035 14.8298 6.70035 14.8298C7.53035 14.8298 8.28035 15.1198 8.89035 15.5898V10.7398L10.2904 10.3398Z" fill="#9AA1AD"/>
<path d="M20.89 7.31982V16.4798C20.89 18.4598 19.28 20.0698 17.3 20.0698C15.33 20.0698 13.71 18.4598 13.71 16.4798C13.71 14.5098 15.33 12.8998 17.3 12.8998C18.14 12.8998 18.89 13.1898 19.5 13.6698V7.71982L20.89 7.31982Z" fill="#9AA1AD"/>
<path opacity="0.4" d="M20.8896 5.18007V7.32007L8.88965 10.7401V6.75007C8.88965 5.28007 9.77965 4.14007 11.1896 3.76007L16.9696 2.18007C18.1396 1.86007 19.1296 1.97007 19.8296 2.51007C20.5396 3.04007 20.8896 3.94007 20.8896 5.18007Z" fill="#9AA1AD"/>
</svg>
