<svg width="24" height="24" viewBox="0 0 24 24" fill="none" xmlns="http://www.w3.org/2000/svg">
<path opacity="0.4" d="M17.028 0H6.972C2.604 0 0 2.604 0 6.972V17.028C0 21.396 2.604 24 6.972 24H17.028C21.396 24 24 21.396 24 17.028V6.972C24 2.604 21.396 0 17.028 0Z" fill="#9AA1AD"/>
<path d="M19.5717 8.24424C19.5717 8.73624 19.1757 9.14424 18.6717 9.14424H12.3717C11.8797 9.14424 11.4717 8.73624 11.4717 8.24424C11.4717 7.75224 11.8797 7.34424 12.3717 7.34424H18.6717C19.1757 7.34424 19.5717 7.75224 19.5717 8.24424Z" fill="#9AA1AD"/>
<path d="M9.56387 7.07988L6.86387 9.77988C6.68387 9.95988 6.45587 10.0439 6.22787 10.0439C5.99987 10.0439 5.75987 9.95988 5.59187 9.77988L4.69187 8.87988C4.33188 8.53188 4.33188 7.95588 4.69187 7.60788C5.03987 7.25988 5.60387 7.25988 5.96387 7.60788L6.22787 7.87188L8.29187 5.80788C8.63987 5.45987 9.20387 5.45987 9.56387 5.80788C9.91187 6.15588 9.91187 6.73188 9.56387 7.07988Z" fill="#9AA1AD"/>
<path d="M19.5717 16.6441C19.5717 17.1361 19.1757 17.5441 18.6717 17.5441H12.3717C11.8797 17.5441 11.4717 17.1361 11.4717 16.6441C11.4717 16.1521 11.8797 15.7441 12.3717 15.7441H18.6717C19.1757 15.7441 19.5717 16.1521 19.5717 16.6441Z" fill="#9AA1AD"/>
<path d="M9.56387 15.4798L6.86387 18.1798C6.68387 18.3598 6.45587 18.4438 6.22787 18.4438C5.99987 18.4438 5.75987 18.3598 5.59187 18.1798L4.69187 17.2798C4.33188 16.9318 4.33188 16.3558 4.69187 16.0078C5.03987 15.6598 5.60387 15.6598 5.96387 16.0078L6.22787 16.2718L8.29187 14.2078C8.63987 13.8598 9.20387 13.8598 9.56387 14.2078C9.91187 14.5558 9.91187 15.1318 9.56387 15.4798Z" fill="#9AA1AD"/>
</svg>
